<?xml version="1.0" standalone="no"?>
<!DOCTYPE svg PUBLIC "-//W3C//DTD SVG 20010904//EN"
 "http://www.w3.org/TR/2001/REC-SVG-20010904/DTD/svg10.dtd">
<svg version="1.0" xmlns="http://www.w3.org/2000/svg"
 width="500.000000pt" height="750.000000pt" viewBox="0 0 500.000000 750.000000"
 preserveAspectRatio="xMidYMid meet">

<g transform="translate(0.000000,750.000000) scale(0.100000,-0.100000)"
fill="#000000" stroke="none">
<path d="M0 5359 c0 -1336 4 -2195 10 -2279 60 -808 360 -1449 941 -2015 342
-333 772 -633 1402 -979 l158 -86 192 106 c836 464 1345 865 1703 1340 313
416 485 842 567 1404 20 141 21 182 24 1648 l4 1502 -59 0 c-117 0 -330 22
-452 46 -171 34 -343 93 -511 175 -171 84 -258 135 -592 346 -328 207 -479
295 -697 402 -679 335 -1432 497 -2452 527 l-238 7 0 -2144z m415 2061 c929
-46 1623 -205 2255 -519 202 -100 320 -168 585 -335 419 -263 497 -310 660
-391 309 -153 550 -217 913 -240 l103 -7 -4 -1462 c-4 -1591 -2 -1534 -62
-1831 -153 -754 -568 -1362 -1305 -1907 -238 -176 -551 -373 -893 -562 l-157
-87 -183 102 c-616 343 -998 614 -1341 949 -464 454 -738 953 -855 1560 -58
297 -55 153 -58 2543 l-4 2197 73 0 c40 0 163 -5 273 -10z"/>
<path d="M497 7098 c-11 -91 -8 -253 8 -367 12 -85 133 -703 160 -818 4 -16
13 -23 28 -23 51 1 51 -2 -22 356 -63 310 -91 463 -105 584 -6 45 -6 45 9 17
22 -39 90 -284 176 -630 l74 -298 30 7 c16 3 32 8 35 11 5 4 -109 470 -172
703 -49 179 -103 319 -167 428 l-48 84 -6 -54z"/>
<path d="M575 5945 c-5 -2 -22 -6 -36 -9 -26 -6 -26 -7 -16 -51 11 -48 17 -51
76 -39 34 7 36 12 20 67 -9 34 -18 41 -44 32z"/>
<path d="M766 5886 c-50 -11 -90 -25 -89 -29 1 -27 27 -147 32 -147 3 0 57 12
119 26 93 22 112 29 108 43 -2 9 -10 42 -17 74 -14 67 -13 67 -153 33z"/>
<path d="M580 5823 c-30 -8 -56 -15 -57 -17 -2 -2 15 -84 22 -102 2 -9 21 -8
67 3 34 8 64 16 66 18 8 8 -22 115 -32 114 -6 0 -36 -8 -66 -16z"/>
<path d="M815 5713 c-32 -8 -61 -15 -62 -17 -2 -1 6 -44 18 -94 20 -87 23 -92
48 -93 20 0 22 -2 9 -7 -15 -6 -8 -17 38 -72 156 -182 345 -528 462 -845 193
-522 312 -1117 312 -1571 l0 -170 -35 -17 c-20 -9 -37 -17 -39 -17 -2 0 -34
113 -71 250 -37 138 -73 250 -79 250 -6 -1 -65 -13 -131 -29 -86 -20 -119 -32
-118 -42 1 -8 32 -146 68 -307 37 -161 64 -300 61 -307 -16 -44 -36 15 -101
303 -37 169 -70 309 -72 311 -4 6 -123 -21 -128 -29 -3 -4 18 -122 45 -261 27
-140 50 -262 50 -273 0 -10 -12 -32 -26 -49 -24 -28 -26 -37 -21 -86 5 -45 12
-60 37 -84 l32 -30 -29 -22 c-24 -20 -28 -30 -28 -75 0 -45 4 -55 29 -77 26
-22 29 -31 30 -87 1 -70 15 -96 52 -96 18 0 24 -6 24 -21 0 -29 72 -99 101
-99 13 0 51 7 84 15 33 8 64 14 69 15 11 0 -1 -88 -19 -141 l-15 -41 182 -396
c99 -219 182 -399 184 -400 2 -3 569 159 614 176 16 6 -13 57 -241 406 -142
220 -257 401 -254 404 8 9 203 -106 505 -297 381 -242 492 -307 679 -403 l153
-78 52 42 c136 112 483 486 465 502 -13 12 -168 84 -299 139 -222 93 -373 146
-693 243 -443 133 -559 178 -653 250 -74 57 -104 96 -174 224 -35 63 -72 126
-82 140 -27 35 -19 35 169 10 734 -96 1340 -269 1861 -532 97 -48 177 -87 178
-85 1 1 7 112 13 247 44 942 150 1628 372 2404 22 76 37 142 32 146 -4 4 -103
44 -219 89 -1287 493 -2384 661 -3283 501 -62 -12 -116 -19 -118 -16 -3 2 16
8 41 11 26 4 48 10 50 14 2 3 -5 48 -17 99 -23 103 -16 98 -112 75z m1342
-579 c-3 -3 -12 -4 -19 -1 -8 3 -5 6 6 6 11 1 17 -2 13 -5z m270 0 c-3 -3 -12
-4 -19 -1 -8 3 -5 6 6 6 11 1 17 -2 13 -5z m-199 -11 c-10 -2 -26 -2 -35 0
-10 3 -2 5 17 5 19 0 27 -2 18 -5z m135 0 c-7 -2 -21 -2 -30 0 -10 3 -4 5 12
5 17 0 24 -2 18 -5z m-273 -13 c4 0 10 -7 14 -15 3 -8 0 -14 -6 -12 -5 1 -12
-6 -13 -15 -3 -16 -1 -17 18 -3 48 33 61 9 17 -32 -14 -12 -20 -23 -14 -23 7
0 14 7 18 15 6 17 50 19 81 4 19 -9 19 -9 -1 -5 -13 2 -34 -6 -50 -20 -16 -13
-39 -23 -51 -24 -12 0 -24 -3 -26 -7 -3 -5 18 -6 46 -5 49 3 51 3 32 -12 -11
-8 -27 -16 -35 -16 -10 0 -6 -5 8 -14 23 -12 23 -13 -25 -31 -80 -30 -166 -96
-210 -160 -33 -47 -88 -159 -85 -172 1 -6 -2 -14 -7 -18 -6 -3 -8 -12 -4 -20
7 -21 -17 -47 -36 -40 -13 5 -13 4 -4 -6 9 -9 16 -9 26 -1 12 10 14 0 13 -61
-1 -54 5 -87 22 -132 33 -84 36 -95 23 -95 -6 0 -11 7 -11 16 0 8 -5 12 -10 9
-6 -4 -8 -11 -4 -16 3 -6 -6 -8 -23 -5 -15 3 -49 6 -75 7 -36 2 -48 7 -48 18
0 9 -5 23 -10 31 -8 11 -9 8 -4 -12 8 -36 -11 -37 -42 -2 -43 45 -39 2 6 -88
l42 -83 77 3 c42 2 112 6 155 11 88 8 109 -1 122 -55 4 -16 9 -22 14 -14 5 8
9 7 13 -4 6 -14 1 -18 -19 -15 -4 0 -10 -3 -13 -8 -7 -11 -100 -39 -158 -48
-31 -5 -50 -2 -73 11 -39 24 -38 34 4 34 26 0 36 -5 41 -20 3 -11 11 -20 17
-20 6 0 5 7 -3 16 -12 15 -9 16 29 13 38 -4 42 -2 42 17 0 12 6 25 13 27 7 3
5 6 -5 6 -12 1 -18 -6 -18 -19 0 -17 -7 -20 -39 -20 -22 0 -42 4 -45 8 -3 5
-19 7 -36 4 -24 -3 -40 3 -70 27 -36 28 -45 31 -113 31 l-74 0 -28 103 c-15
56 -30 110 -32 120 -5 15 2 17 57 17 l63 0 -7 46 c-4 34 -3 43 7 38 9 -6 9 -5
0 7 -10 12 -11 48 -4 139 2 25 2 25 19 5 22 -25 43 -30 35 -9 -3 8 -8 12 -11
9 -9 -9 -42 27 -42 47 0 25 16 23 34 -4 10 -13 16 -17 16 -9 0 11 4 10 18 -2
10 -10 22 -17 27 -17 11 0 -36 35 -57 43 -12 4 -18 17 -18 37 0 17 4 29 8 26
4 -2 8 8 7 22 0 15 5 26 11 25 7 -1 10 6 7 18 -8 29 50 136 107 198 28 30 50
48 50 40 1 -8 8 -1 16 15 11 19 19 25 23 17 5 -7 12 -2 21 16 8 18 14 23 17
15 4 -10 9 -7 20 8 8 12 25 26 37 31 11 6 41 20 66 33 24 13 53 21 65 19 17
-4 18 -3 5 7 -13 10 -12 11 3 6 10 -3 22 -6 27 -6z m67 4 c-3 -3 -12 -4 -19
-1 -8 3 -5 6 6 6 11 1 17 -2 13 -5z m266 -1 c-7 -2 -19 -2 -25 0 -7 3 -2 5 12
5 14 0 19 -2 13 -5z m67 -3 c-12 -8 -10 -10 10 -11 14 -1 29 -1 34 0 4 1 15
-4 23 -11 8 -7 22 -13 31 -15 9 -1 21 -8 27 -16 5 -7 15 -12 22 -10 6 2 18 -5
25 -16 8 -12 17 -19 20 -16 2 3 20 -10 40 -28 19 -17 38 -32 41 -32 18 0 85
-77 123 -142 40 -66 46 -101 24 -123 -10 -10 -16 -21 -13 -24 3 -3 14 5 24 17
l19 22 -2 -35 c-2 -24 -8 -35 -19 -35 -19 0 -49 -23 -49 -37 0 -6 9 0 20 13
l19 24 1 -31 c0 -21 6 -34 18 -39 14 -5 15 -4 5 6 -18 18 -16 43 5 62 17 16
19 13 31 -59 7 -42 11 -78 8 -80 -3 -3 -1 -21 3 -41 5 -20 4 -46 -1 -60 -6
-17 -6 -22 2 -17 7 4 9 0 6 -12 -3 -11 -8 -31 -11 -46 l-6 -28 655 0 c360 0
655 -2 655 -5 0 -5 -31 -149 -45 -213 l-5 -22 -674 2 -673 3 -17 -22 c-9 -13
-23 -23 -31 -23 -8 0 -15 -4 -15 -10 0 -5 -16 -10 -36 -10 -25 0 -33 3 -28 13
4 6 -1 4 -12 -5 -11 -9 -34 -16 -52 -16 -18 1 -35 -2 -39 -5 -3 -4 11 -7 32
-7 32 0 36 -2 25 -15 -10 -12 -10 -15 4 -15 9 0 15 3 15 8 -4 26 4 32 44 32
l42 -1 -30 -25 c-26 -22 -36 -24 -80 -19 -27 3 -51 10 -53 15 -2 4 -12 6 -22
3 -15 -4 -20 0 -20 16 0 11 -4 21 -10 21 -5 0 -7 -7 -4 -15 7 -18 4 -18 -30
-5 -34 13 -36 61 -3 93 22 22 25 22 142 12 186 -16 183 -16 228 68 21 40 37
82 37 94 l0 22 -26 -24 c-30 -28 -68 -37 -137 -32 -26 2 -49 1 -52 -2 -3 -3
-17 -7 -31 -8 l-25 -4 17 38 c34 81 45 120 45 166 1 44 2 47 17 34 15 -14 19
-13 35 9 21 28 16 32 -8 8 -23 -24 -42 -2 -49 56 -10 86 -26 130 -79 212 -51
79 -101 123 -189 167 -69 34 -77 40 -61 50 17 10 17 10 -2 12 -11 1 -27 1 -35
0 -10 0 -11 1 -2 5 6 3 9 10 6 16 -5 7 11 9 47 5 35 -4 48 -3 39 3 -8 5 -24
10 -35 10 -11 0 -33 14 -49 30 l-29 30 31 0 c19 0 35 -7 41 -17 6 -10 11 -13
11 -7 0 16 -35 45 -44 37 -4 -4 -4 1 0 11 6 16 16 17 49 5 6 -2 11 1 12 6 0 6
-3 9 -8 8 -13 -4 -11 4 7 21 8 9 21 16 27 16 7 0 6 -4 -3 -10z m-287 -27 c-7
-2 -19 -2 -25 0 -7 3 -2 5 12 5 14 0 19 -2 13 -5z m174 1 c-3 -3 -12 -4 -19
-1 -8 3 -5 6 6 6 11 1 17 -2 13 -5z m-174 -21 c-7 -2 -19 -2 -25 0 -7 3 -2 5
12 5 14 0 19 -2 13 -5z m180 0 c-7 -2 -19 -2 -25 0 -7 3 -2 5 12 5 14 0 19 -2
13 -5z m-156 -19 c-3 -3 -12 -4 -19 -1 -8 3 -5 6 6 6 11 1 17 -2 13 -5z m130
0 c-3 -3 -12 -4 -19 -1 -8 3 -5 6 6 6 11 1 17 -2 13 -5z m0 -20 c-3 -3 -12 -4
-19 -1 -8 3 -5 6 6 6 11 1 17 -2 13 -5z m-114 -21 c-7 -2 -19 -2 -25 0 -7 3
-2 5 12 5 14 0 19 -2 13 -5z m100 0 c-7 -2 -19 -2 -25 0 -7 3 -2 5 12 5 14 0
19 -2 13 -5z m-156 -9 c-3 -3 -12 -4 -19 -1 -8 3 -5 6 6 6 11 1 17 -2 13 -5z
m210 0 c-3 -3 -12 -4 -19 -1 -8 3 -5 6 6 6 11 1 17 -2 13 -5z m-190 -20 c-3
-3 -12 -4 -19 -1 -8 3 -5 6 6 6 11 1 17 -2 13 -5z m166 -1 c-7 -2 -19 -2 -25
0 -7 3 -2 5 12 5 14 0 19 -2 13 -5z m-16 -19 c-3 -3 -12 -4 -19 -1 -8 3 -5 6
6 6 11 1 17 -2 13 -5z m-114 -21 c-7 -2 -21 -2 -30 0 -10 3 -4 5 12 5 17 0 24
-2 18 -5z m100 0 c-7 -2 -19 -2 -25 0 -7 3 -2 5 12 5 14 0 19 -2 13 -5z m54
-9 c-3 -3 -12 -4 -19 -1 -8 3 -5 6 6 6 11 1 17 -2 13 -5z m8 -85 l75 -11 0
-43 0 -42 -77 -10 c-62 -8 -82 -7 -98 4 -11 7 -24 13 -30 13 -5 -1 0 -6 13
-14 13 -7 29 -22 35 -33 22 -40 234 -428 246 -450 6 -13 10 -23 7 -23 -3 0
-69 83 -148 185 -78 102 -146 185 -150 185 -4 0 -69 -80 -144 -177 -158 -205
-174 -223 -146 -168 72 143 230 424 235 418 4 -3 7 3 7 15 0 11 7 28 16 36 8
9 11 16 5 16 -5 0 -13 -5 -17 -11 -7 -12 -75 -5 -131 12 -29 9 -33 15 -33 45
0 29 5 36 33 48 40 18 198 20 302 5z m-100 -276 c22 -26 24 -37 25 -131 l0
-103 -52 3 -53 3 -3 93 c-3 87 -1 94 24 127 14 19 28 35 31 35 2 0 15 -12 28
-27z m263 -205 c-31 -24 -35 -23 -52 10 -13 26 -13 31 2 45 15 16 18 15 44
-10 l29 -27 -23 -18z m-288 -32 c64 0 96 5 130 20 l45 21 22 -28 c28 -33 22
-39 -64 -68 -81 -27 -180 -28 -264 -1 -93 29 -96 32 -70 68 l21 31 48 -22 c36
-16 66 -21 132 -21z m50 -207 l0 -120 -52 3 -53 3 -3 118 -3 117 56 0 55 0 0
-121z m200 -121 c0 -16 -3 -19 -11 -11 -6 6 -8 16 -5 22 11 17 16 13 16 -11z
m-536 -174 c11 -29 6 -34 -32 -34 -35 0 -62 14 -62 31 0 4 17 10 38 12 20 2
40 4 43 5 4 1 10 -5 13 -14z m650 -16 c-13 -14 -28 -18 -58 -16 -28 2 -46 -2
-58 -14 -10 -10 -25 -14 -37 -11 -15 4 -21 1 -21 -11 0 -18 -20 -20 -68 -7
-38 11 -93 -6 -70 -21 19 -12 35 -9 18 3 -12 8 -9 9 10 4 19 -5 22 -4 10 4
-18 13 -1 15 18 2 10 -6 5 -11 -17 -21 -17 -7 -28 -16 -25 -21 8 -13 -3 -11
-36 6 -26 14 -34 14 -65 1 -19 -8 -35 -11 -35 -7 0 4 -12 13 -26 19 -14 7 -23
16 -19 21 3 6 -13 9 -37 8 -37 -2 -43 1 -46 19 -3 18 7 23 76 42 101 28 149
28 248 -2 78 -23 79 -23 87 -4 5 16 14 19 37 16 16 -2 31 0 33 6 3 7 24 10 51
8 46 -4 47 -5 30 -24z m-583 -9 c9 -17 8 -23 -2 -30 -15 -9 -49 16 -49 38 0
21 38 15 51 -8z m-603 -826 c5 -10 17 -58 27 -106 21 -102 16 -115 -53 -124
-48 -6 -52 -1 -76 104 -22 99 -21 122 7 133 38 15 85 12 95 -7z m279 -183 c45
0 92 -52 152 -170 28 -53 71 -124 96 -158 36 -49 45 -70 45 -102 0 -45 15 -52
32 -15 l11 24 27 -19 c90 -64 219 -112 735 -270 215 -66 424 -139 573 -201
139 -57 292 -131 292 -140 0 -15 -124 -164 -211 -254 l-87 -89 -113 58 c-63
32 -181 98 -264 147 -132 77 -159 89 -222 98 -106 16 -221 55 -373 126 -74 34
-162 68 -195 74 -69 13 -198 72 -284 130 -59 40 -71 41 -82 3 -3 -8 -15 -4
-41 14 -31 22 -37 34 -43 74 -4 27 -4 59 0 70 5 16 0 29 -19 49 -39 41 -47 80
-53 254 -4 119 -9 157 -19 157 -7 0 -17 -15 -23 -33 -19 -55 -94 -117 -143
-117 -31 0 -68 27 -68 48 0 10 19 37 43 60 38 37 45 41 61 29 26 -19 17 -58
-22 -83 -18 -13 -28 -25 -23 -28 16 -10 81 53 81 78 0 13 -12 33 -26 47 -21
19 -25 30 -20 58 11 72 53 104 116 90 19 -5 49 -9 67 -9z m-519 -136 c12 -4
22 -12 22 -20 0 -21 40 -42 93 -49 77 -12 115 -61 80 -103 -20 -23 -108 -42
-198 -42 -45 0 -53 3 -68 29 -24 40 -21 60 10 93 20 21 23 28 11 28 -9 0 -26
-12 -38 -27 -21 -27 -23 -55 -5 -97 8 -17 6 -17 -22 -2 -32 16 -43 39 -43 97
0 46 16 66 65 84 45 16 60 17 93 9z m266 -213 c15 -10 37 -32 47 -47 18 -28
18 -29 -3 -51 -26 -28 -116 -57 -223 -72 -44 -6 -94 -14 -111 -16 -28 -5 -33
-2 -43 25 -7 21 -7 39 0 57 11 29 7 39 -11 28 -8 -5 -11 -26 -8 -61 5 -60 -7
-69 -42 -34 -20 20 -28 83 -12 106 17 25 62 37 171 45 64 4 134 14 156 22 22
8 42 15 45 16 3 0 18 -8 34 -18z m76 -161 c61 -61 -14 -118 -218 -166 -60 -14
-65 -14 -96 5 -18 11 -38 32 -46 46 -21 39 -32 30 -28 -25 2 -41 0 -50 -13
-50 -11 0 -20 15 -28 46 -19 73 -3 89 106 104 48 6 131 22 183 35 120 29 116
29 140 5z m-330 -188 c-20 -7 -40 7 -40 29 l0 22 26 -24 c14 -13 20 -25 14
-27z m313 27 c28 -44 -20 -91 -127 -125 -62 -20 -102 -10 -135 32 -33 41 -38
23 -14 -43 6 -17 5 -16 -16 2 -13 11 -29 32 -37 48 -17 33 -24 29 109 57 53
12 114 27 135 35 45 17 72 15 85 -6z m234 -71 c11 -13 133 -204 271 -426 l251
-403 -45 -20 c-25 -10 -51 -19 -58 -19 -12 0 -472 794 -489 843 -17 47 34 64
70 25z"/>
<path d="M2017 5071 c-12 -25 -13 -29 -1 -24 12 4 12 0 3 -23 -5 -16 -18 -37
-26 -46 -15 -17 -15 -18 0 -18 10 0 27 -10 39 -22 14 -14 19 -16 15 -5 -3 8
-1 18 6 21 7 2 0 5 -15 5 -35 1 -44 17 -19 32 10 7 17 19 14 26 -3 7 0 20 7
28 10 12 10 15 0 15 -7 0 -10 8 -7 20 7 28 1 25 -16 -9z"/>
<path d="M1965 5027 c-4 -20 -5 -42 -2 -49 3 -7 6 -2 6 13 1 14 5 29 11 35 5
5 6 15 0 23 -6 11 -10 5 -15 -22z"/>
<path d="M1920 5013 c0 -12 -6 -23 -12 -26 -7 -2 -10 -7 -7 -11 12 -12 38 29
29 44 -8 12 -10 11 -10 -7z"/>
<path d="M2060 5015 c-19 -22 -8 -25 13 -3 9 10 13 18 8 18 -5 0 -14 -7 -21
-15z"/>
<path d="M1843 4953 c-7 -2 -13 -9 -13 -15 0 -7 5 -7 13 1 8 6 18 7 22 3 5 -4
5 -1 1 6 -4 6 -8 12 -9 11 -1 0 -8 -3 -14 -6z"/>
<path d="M1900 4929 c0 -5 5 -7 10 -4 6 3 10 8 10 11 0 2 -4 4 -10 4 -5 0 -10
-5 -10 -11z"/>
<path d="M1938 4933 c7 -3 16 -2 19 1 4 3 -2 6 -13 5 -11 0 -14 -3 -6 -6z"/>
<path d="M1978 4923 c7 -3 16 -2 19 1 4 3 -2 6 -13 5 -11 0 -14 -3 -6 -6z"/>
<path d="M2060 4916 c0 -2 7 -7 16 -10 8 -3 12 -2 9 4 -6 10 -25 14 -25 6z"/>
<path d="M1786 4894 c-3 -9 -11 -12 -18 -8 -7 4 -10 4 -6 -1 4 -4 2 -17 -3
-29 -6 -11 3 -5 19 14 17 19 31 30 32 25 0 -6 -6 -17 -12 -25 -11 -12 -10 -12
5 -1 9 7 17 20 17 27 0 19 -26 18 -34 -2z"/>
<path d="M1935 4900 c-16 -4 -24 -8 -16 -9 11 -1 11 -4 0 -18 -8 -9 0 -7 19 7
26 19 42 35 30 29 -2 -1 -16 -5 -33 -9z"/>
<path d="M1849 4857 c5 -5 19 -7 32 -5 20 3 19 5 -9 9 -20 3 -29 2 -23 -4z"/>
<path d="M1717 4849 c7 -7 15 -10 18 -7 3 3 -2 9 -12 12 -14 6 -15 5 -6 -5z"/>
<path d="M1811 4826 c-8 -9 -8 -16 -2 -20 5 -4 12 -2 16 3 3 5 14 8 25 6 21
-4 36 10 21 19 -5 4 -13 2 -16 -4 -5 -8 -11 -8 -20 0 -9 7 -16 6 -24 -4z"/>
<path d="M1705 4810 c10 -11 20 -20 23 -20 3 0 -3 9 -13 20 -10 11 -20 20 -23
20 -3 0 3 -9 13 -20z"/>
<path d="M1905 4810 c-3 -5 1 -10 10 -10 9 0 13 5 10 10 -3 6 -8 10 -10 10 -2
0 -7 -4 -10 -10z"/>
<path d="M1876 4803 c-4 -5 -12 -9 -17 -9 -5 -1 -11 -3 -14 -4 -13 -6 -31 -6
-41 2 -6 4 -11 2 -11 -6 0 -10 44 -15 55 -6 1 1 6 3 12 4 10 1 37 26 29 26 -3
0 -9 -3 -13 -7z"/>
<path d="M1693 4793 c4 -3 1 -13 -6 -22 -11 -14 -10 -14 5 -2 16 12 16 31 1
31 -4 0 -3 -3 0 -7z"/>
<path d="M1700 4750 c-12 -22 -12 -24 2 -12 13 10 17 10 22 -4 3 -8 6 -24 6
-35 0 -10 4 -19 10 -19 5 0 7 7 4 15 -4 8 -1 22 6 30 11 13 10 14 -2 10 -9 -4
-18 3 -25 17 l-10 23 -13 -25z"/>
<path d="M1864 4758 c-3 -5 -9 -6 -14 -3 -5 3 -11 1 -15 -5 -4 -6 -10 -8 -15
-5 -5 3 -11 1 -14 -4 -5 -7 22 -8 32 -1 1 2 7 4 12 5 6 1 12 4 15 5 3 1 9 3
14 4 17 2 21 13 6 13 -9 0 -18 -4 -21 -9z"/>
<path d="M1663 4695 c-21 -25 -18 -36 5 -13 9 9 13 7 18 -5 3 -9 11 -17 16
-17 7 0 7 4 0 13 -5 6 -11 20 -13 29 -3 15 -7 14 -26 -7z"/>
<path d="M1777 4701 c-10 -14 -10 -14 4 -4 9 7 18 10 21 7 3 -3 8 -1 12 4 9
16 -24 9 -37 -7z"/>
<path d="M1774 4674 c-18 -14 -18 -15 4 -4 12 6 22 13 22 15 0 8 -5 6 -26 -11z"/>
<path d="M1825 4670 c-4 -6 -11 -7 -17 -4 -7 4 -8 2 -4 -5 6 -9 11 -9 22 0 14
11 18 19 10 19 -3 0 -8 -5 -11 -10z"/>
<path d="M1642 4639 c-7 -12 -11 -24 -8 -27 3 -3 6 0 6 7 0 7 6 11 14 8 10 -4
12 0 9 14 -6 23 -5 23 -21 -2z"/>
<path d="M1751 4636 c0 -11 -8 -27 -15 -35 -10 -11 -12 -21 -6 -31 8 -12 10
-11 10 6 0 11 5 25 11 31 6 6 9 19 6 29 -4 18 -5 18 -6 0z"/>
<path d="M1688 4619 c-14 -15 -14 -20 -3 -36 7 -10 17 -15 21 -10 4 4 2 7 -4
7 -18 0 -14 28 4 38 9 5 13 11 8 14 -5 3 -17 -3 -26 -13z"/>
<path d="M1790 4625 c0 -8 4 -15 10 -15 5 0 7 7 4 15 -4 8 -8 15 -10 15 -2 0
-4 -7 -4 -15z"/>
<path d="M1770 4570 c0 -5 5 -10 11 -10 5 0 7 5 4 10 -3 6 -8 10 -11 10 -2 0
-4 -4 -4 -10z"/>
<path d="M1722 4520 c0 -14 2 -19 5 -12 2 6 2 18 0 25 -3 6 -5 1 -5 -13z"/>
<path d="M1672 4524 c4 -4 3 -15 -3 -25 -13 -24 -8 -24 13 0 15 18 15 20 0 26
-9 3 -13 3 -10 -1z"/>
<path d="M1589 4477 c8 -10 22 -22 32 -28 15 -8 17 -6 13 6 -4 9 -9 13 -12 10
-3 -3 -15 3 -26 12 -20 17 -20 17 -7 0z"/>
<path d="M1717 4470 c3 -11 7 -20 9 -20 2 0 4 9 4 20 0 11 -4 20 -9 20 -5 0
-7 -9 -4 -20z"/>
<path d="M1673 4453 c0 -9 4 -10 14 -2 7 6 13 12 13 14 0 1 -6 2 -13 2 -8 0
-14 -6 -14 -14z"/>
<path d="M1706 4415 c-3 -9 -6 -22 -5 -28 0 -7 5 -1 10 12 5 13 8 26 5 28 -2
2 -6 -3 -10 -12z"/>
<path d="M1615 4400 c16 -18 16 -20 1 -26 -14 -5 -14 -9 -4 -21 11 -14 13 -13
19 8 6 25 -9 59 -25 59 -5 0 -1 -9 9 -20z"/>
<path d="M1670 4394 c0 -8 5 -12 10 -9 6 4 8 11 5 16 -9 14 -15 11 -15 -7z"/>
<path d="M1734 4342 c4 -3 14 -7 22 -8 9 -1 13 0 10 4 -4 3 -14 7 -22 8 -9 1
-13 0 -10 -4z"/>
<path d="M1676 4313 c-6 -14 -5 -15 5 -6 7 7 10 15 7 18 -3 3 -9 -2 -12 -12z"/>
<path d="M1676 4271 c-4 -5 4 -15 16 -22 22 -12 22 -11 8 7 -8 10 -15 20 -16
22 -1 2 -5 -1 -8 -7z"/>
<path d="M1855 4021 c-3 -5 -1 -12 5 -16 5 -3 10 1 10 9 0 18 -6 21 -15 7z"/>
<path d="M1950 4016 c0 -2 9 -6 20 -9 11 -3 18 -1 14 4 -5 9 -34 13 -34 5z"/>
<path d="M1945 3980 c3 -5 11 -10 16 -10 6 0 7 5 4 10 -3 6 -11 10 -16 10 -6
0 -7 -4 -4 -10z"/>
<path d="M2521 5061 c-8 -6 -9 -11 -3 -15 6 -3 14 -1 17 5 9 14 2 20 -14 10z"/>
<path d="M2470 5037 c0 -9 5 -19 11 -22 6 -4 8 -13 5 -21 -3 -8 0 -11 9 -8 13
6 7 23 -22 63 -2 2 -3 -3 -3 -12z"/>
<path d="M2580 5025 c7 -8 10 -24 7 -35 -3 -11 -2 -22 3 -25 13 -8 17 51 3 63
-18 17 -28 15 -13 -3z"/>
<path d="M2526 5011 c-3 -5 1 -11 9 -14 9 -4 12 -1 8 9 -6 16 -10 17 -17 5z"/>
<path d="M2627 4999 c6 -8 13 -27 15 -44 l3 -30 6 31 c4 25 1 34 -15 44 -18
11 -19 11 -9 -1z"/>
<path d="M2550 4970 c0 -5 5 -10 11 -10 5 0 7 5 4 10 -3 6 -8 10 -11 10 -2 0
-4 -4 -4 -10z"/>
<path d="M2500 4956 c0 -9 30 -14 35 -6 4 6 -3 10 -14 10 -12 0 -21 -2 -21 -4z"/>
<path d="M2691 4913 c9 -48 6 -64 -14 -59 -7 1 -9 1 -4 -1 4 -3 5 -9 2 -13 -3
-5 3 -7 15 -5 11 2 22 -1 25 -6 4 -5 11 -7 16 -3 6 4 4 13 -6 24 -22 25 -34
107 -14 95 8 -5 10 -4 6 0 -4 5 -14 10 -21 11 -10 1 -11 -8 -5 -43z m30 -70
c12 -16 12 -17 -2 -6 -9 7 -20 9 -24 5 -5 -4 -5 -1 -1 6 9 16 11 15 27 -5z"/>
<path d="M2600 4940 c0 -5 5 -10 11 -10 5 0 7 5 4 10 -3 6 -8 10 -11 10 -2 0
-4 -4 -4 -10z"/>
<path d="M2466 4925 c10 -8 23 -15 28 -15 6 0 1 7 -10 15 -10 8 -23 15 -28 15
-6 0 -1 -7 10 -15z"/>
<path d="M2550 4926 c0 -9 30 -14 35 -6 4 6 -3 10 -14 10 -12 0 -21 -2 -21 -4z"/>
<path d="M2650 4909 c0 -7 -11 -10 -29 -7 -17 2 -28 1 -25 -4 7 -11 45 -10 63
1 9 6 10 11 2 15 -6 4 -11 2 -11 -5z"/>
<path d="M2750 4913 c0 -6 8 -17 18 -24 16 -13 16 -13 2 6 -8 11 -16 22 -17
24 -2 2 -3 0 -3 -6z"/>
<path d="M2735 4880 c-7 -12 14 -44 23 -35 3 3 12 -1 21 -8 14 -11 14 -10 3 5
-8 10 -19 16 -25 15 -7 -1 -11 6 -11 16 2 19 -2 22 -11 7z"/>
<path d="M2630 4870 c0 -5 5 -10 11 -10 5 0 7 5 4 10 -3 6 -8 10 -11 10 -2 0
-4 -4 -4 -10z"/>
<path d="M2797 4852 c12 -11 21 -21 20 -23 -1 -3 4 2 11 10 6 8 12 20 12 25 0
6 -5 4 -10 -4 -8 -13 -13 -13 -32 -2 l-23 13 22 -19z"/>
<path d="M2670 4808 c-13 -8 -12 -9 2 -5 9 3 22 0 28 -8 6 -7 19 -12 28 -10 9
1 22 -2 29 -7 10 -8 11 -4 4 31 -1 2 -7 -1 -14 -8 -10 -8 -17 -7 -25 1 -7 7
-12 8 -12 4 0 -5 -6 -4 -13 2 -9 8 -17 8 -27 0z"/>
<path d="M2848 4803 c-19 -23 -21 -60 -3 -60 10 0 11 5 4 18 -12 24 -11 32 4
23 6 -4 9 -4 5 1 -4 4 -3 14 3 22 6 7 9 13 7 13 -3 0 -12 -8 -20 -17z"/>
<path d="M2874 4779 c-3 -6 1 -18 10 -27 15 -15 16 -15 16 1 0 11 -4 15 -12
11 -8 -5 -9 -2 -5 9 7 19 2 23 -9 6z"/>
<path d="M2665 4770 c-3 -5 3 -7 12 -5 10 1 24 -3 32 -9 8 -6 16 -10 18 -8 1
1 4 2 6 1 1 0 10 -2 20 -4 14 -3 16 0 7 10 -6 7 -19 12 -28 10 -9 -1 -21 0
-27 4 -16 9 -35 10 -40 1z"/>
<path d="M2791 4764 c0 -11 3 -14 6 -6 3 7 2 16 -1 19 -3 4 -6 -2 -5 -13z"/>
<path d="M2790 4736 c0 -1 9 -9 20 -19 15 -13 20 -14 20 -3 0 7 -9 16 -20 19
-11 3 -20 4 -20 3z"/>
<path d="M2736 4718 c3 -5 9 -7 12 -4 7 7 32 -13 32 -26 0 -6 -8 -4 -17 3 -10
7 -7 1 7 -15 14 -15 31 -44 37 -64 8 -23 11 -27 8 -9 -4 17 -1 27 7 27 7 0 2
7 -10 16 -12 8 -22 23 -22 33 0 10 -7 25 -16 32 -19 16 -47 21 -38 7z"/>
<path d="M2870 4700 c0 -5 5 -10 10 -10 6 0 10 5 10 10 0 6 -4 10 -10 10 -5 0
-10 -4 -10 -10z"/>
<path d="M2716 4678 c4 -5 9 -7 12 -4 3 3 15 -2 26 -11 21 -18 21 -18 3 3 -16
20 -52 30 -41 12z"/>
<path d="M2800 4686 c0 -2 9 -6 20 -9 11 -3 18 -1 14 4 -5 9 -34 13 -34 5z"/>
<path d="M2853 4665 c-3 -9 -3 -18 -1 -21 3 -3 8 4 11 16 6 23 -1 27 -10 5z"/>
<path d="M2867 4556 c10 -13 21 -22 25 -20 4 3 -2 14 -12 24 -27 27 -35 25
-13 -4z"/>
<path d="M2820 4551 c5 -11 15 -23 21 -27 6 -3 3 5 -6 20 -20 30 -30 35 -15 7z"/>
<path d="M2940 4524 c-17 -9 -20 -14 -9 -14 9 0 22 7 29 15 15 18 13 18 -20
-1z"/>
<path d="M2809 4503 c-13 -16 -12 -17 4 -4 9 7 17 15 17 17 0 8 -8 3 -21 -13z"/>
<path d="M2873 4502 c10 -10 14 -23 10 -27 -5 -5 0 -3 10 4 18 14 24 26 7 16
-6 -3 -13 1 -16 9 -3 9 -11 16 -17 16 -5 0 -3 -8 6 -18z"/>
<path d="M2830 4491 c0 -6 4 -13 10 -16 6 -3 7 1 4 9 -7 18 -14 21 -14 7z"/>
<path d="M2785 4470 c3 -5 8 -10 11 -10 2 0 4 5 4 10 0 6 -5 10 -11 10 -5 0
-7 -4 -4 -10z"/>
<path d="M2930 4465 c0 -8 4 -15 10 -15 5 0 7 7 4 15 -4 8 -8 15 -10 15 -2 0
-4 -7 -4 -15z"/>
<path d="M2883 4423 c0 -9 4 -10 14 -2 7 6 13 12 13 14 0 1 -6 2 -13 2 -8 0
-14 -6 -14 -14z"/>
<path d="M2830 4410 c0 -6 4 -9 9 -6 5 4 12 1 14 -4 3 -6 4 -5 3 2 -3 15 -26
23 -26 8z"/>
<path d="M2922 4400 c-17 -27 -15 -35 4 -16 8 9 14 21 12 26 -2 6 -9 1 -16
-10z"/>
<path d="M2793 4385 c-7 -8 -9 -16 -5 -19 4 -3 13 4 20 15 14 22 3 25 -15 4z"/>
<path d="M2876 4385 c4 -8 11 -15 16 -15 6 0 5 6 -2 15 -7 8 -14 15 -16 15 -2
0 -1 -7 2 -15z"/>
<path d="M2870 4345 c0 -5 5 -17 10 -25 5 -8 10 -10 10 -5 0 6 -5 17 -10 25
-5 8 -10 11 -10 5z"/>
<path d="M2800 4329 c0 -5 5 -7 10 -4 6 3 10 8 10 11 0 2 -4 4 -10 4 -5 0 -10
-5 -10 -11z"/>
<path d="M2920 4331 c0 -6 4 -13 10 -16 6 -3 7 1 4 9 -7 18 -14 21 -14 7z"/>
<path d="M2951 4304 c0 -11 3 -14 6 -6 3 7 2 16 -1 19 -3 4 -6 -2 -5 -13z"/>
<path d="M2860 4301 c0 -6 4 -13 10 -16 6 -3 7 1 4 9 -7 18 -14 21 -14 7z"/>
<path d="M2841 4263 c-1 -17 16 -25 25 -12 4 7 3 9 -4 5 -5 -3 -13 0 -15 6 -4
9 -6 10 -6 1z"/>
<path d="M2885 4230 c-3 -5 -1 -10 4 -10 6 0 11 5 11 10 0 6 -2 10 -4 10 -3 0
-8 -4 -11 -10z"/>
<path d="M2590 4024 c-17 -9 -20 -14 -9 -14 9 0 22 7 29 15 15 18 13 18 -20
-1z"/>
<path d="M2685 4020 c3 -5 11 -10 16 -10 6 0 7 5 4 10 -3 6 -11 10 -16 10 -6
0 -7 -4 -4 -10z"/>
<path d="M2254 4699 c-8 -14 21 -43 35 -35 13 9 15 46 2 46 -5 0 -7 -10 -4
-21 4 -16 2 -20 -8 -17 -8 3 -13 13 -13 22 2 19 -2 21 -12 5z"/>
<path d="M2312 4660 c-14 -23 -51 -26 -72 -7 -12 10 -12 9 -1 -5 18 -24 54
-23 76 2 10 11 16 22 14 25 -3 2 -10 -5 -17 -15z"/>
<path d="M2210 3765 c0 -7 39 -12 49 -5 7 4 -1 7 -18 8 -17 0 -31 -1 -31 -3z"/>
<path d="M2286 3762 c-2 -4 6 -7 20 -7 32 2 39 10 9 13 -13 1 -26 -2 -29 -6z"/>
<path d="M2210 3740 c19 -11 29 -19 21 -20 -8 0 -12 -2 -9 -5 3 -3 13 -2 23 1
15 6 12 10 -16 25 -19 10 -38 18 -44 18 -5 0 6 -8 25 -19z"/>
<path d="M1375 2950 c-4 -7 1 -50 11 -97 l18 -85 30 6 c16 4 31 8 34 10 2 3
-5 42 -15 88 -17 77 -21 83 -45 86 -14 2 -29 -2 -33 -8z"/>
<path d="M1996 2243 c-4 -14 -21 -39 -38 -55 -18 -16 -24 -28 -16 -28 8 0 26
12 40 28 28 29 47 82 30 82 -5 0 -13 -12 -16 -27z"/>
<path d="M2052 2173 c3 -25 19 -33 273 -135 148 -59 272 -108 275 -107 10 1
-525 268 -538 268 -9 1 -12 -9 -10 -26z"/>
<path d="M2025 2090 c-4 -12 -5 -23 -3 -25 6 -6 290 -76 294 -72 2 2 -56 27
-129 56 -72 29 -137 55 -144 58 -6 2 -14 -5 -18 -17z"/>
<path d="M1267 2543 c-10 -10 -8 -71 2 -77 5 -4 9 14 9 39 0 47 0 49 -11 38z"/>
<path d="M1287 2363 c-10 -10 -8 -71 2 -77 5 -4 9 14 9 39 0 47 0 49 -11 38z"/>
<path d="M1345 2193 c3 -16 13 -35 22 -43 14 -13 15 -13 9 3 -3 11 -9 30 -12
43 -3 13 -11 24 -16 24 -6 0 -7 -11 -3 -27z"/>
<path d="M1390 2066 c0 -17 39 -66 40 -49 0 6 -4 15 -10 18 -5 3 -10 15 -10
26 0 10 -4 19 -10 19 -5 0 -10 -6 -10 -14z"/>
<path d="M612 5688 c-33 -7 -42 -13 -38 -26 3 -9 8 -34 12 -55 3 -20 9 -39 13
-42 11 -6 91 16 91 26 0 23 -23 109 -28 108 -4 -1 -26 -5 -50 -11z"/>
<path d="M647 5552 c-53 -12 -66 -18 -63 -31 3 -9 14 -57 26 -107 l21 -92 62
14 c33 8 63 17 66 19 4 5 -27 167 -38 196 -5 14 -13 14 -74 1z"/>
<path d="M485 5496 c-27 -7 -50 -16 -50 -22 0 -5 6 -39 14 -76 9 -46 18 -68
28 -68 21 0 107 22 116 30 4 3 0 39 -9 78 -18 79 -15 78 -99 58z m85 -56 c16
-31 -20 -62 -68 -58 -32 3 -37 7 -40 31 -3 21 2 29 20 36 40 16 76 13 88 -9z"/>
<path d="M362 5448 c-38 -8 -43 -12 -39 -31 3 -12 9 -39 13 -60 6 -33 10 -38
28 -33 11 3 28 6 36 6 35 1 41 14 29 73 -7 31 -15 57 -18 56 -3 -1 -26 -6 -49
-11z"/>
<path d="M698 5318 c-21 -6 -38 -16 -38 -23 0 -18 168 -757 174 -762 2 -2 24
1 50 8 36 9 45 15 41 28 -2 9 -41 176 -85 371 -44 195 -83 363 -86 373 -6 19
-4 19 -56 5z"/>
<path d="M890 4523 c-58 -14 -106 -27 -108 -28 -5 -4 9 -70 17 -84 10 -15 231
35 231 52 0 23 -21 87 -28 86 -4 -1 -54 -12 -112 -26z"/>
<path d="M1002 4426 c-51 -13 -94 -25 -96 -27 -3 -3 243 -1100 248 -1106 1 -1
26 4 56 12 30 7 90 21 132 30 l77 17 12 53 c18 82 6 130 -64 247 -61 103 -63
109 -157 451 -52 191 -99 347 -105 346 -5 0 -52 -11 -103 -23z"/>
<path d="M805 4381 c-16 -3 -31 -13 -33 -21 -2 -13 205 -1102 211 -1105 10 -6
127 29 127 38 0 7 -56 255 -123 552 -91 401 -127 540 -137 541 -8 1 -28 -1
-45 -5z"/>
<path d="M170 3985 l0 -25 168 -2 167 -3 -165 -46 c-153 -42 -165 -47 -165
-69 0 -21 12 -27 165 -71 l165 -48 -167 0 -168 -1 0 -25 0 -25 215 0 215 0 0
33 0 33 -179 49 c-99 27 -178 52 -176 54 3 2 82 25 177 51 l173 47 3 37 3 36
-215 0 -216 0 0 -25z"/>
<path d="M4410 3870 l0 -140 25 0 c24 0 25 3 25 60 l0 60 190 0 c183 0 190 1
190 20 0 19 -7 20 -190 20 l-190 0 0 60 c0 57 -1 60 -25 60 l-25 0 0 -140z"/>
<path d="M4410 3635 l0 -25 215 0 215 0 0 25 0 25 -215 0 -215 0 0 -25z"/>
<path d="M170 3550 c0 -19 7 -20 215 -20 208 0 215 1 215 20 0 19 -7 20 -215
20 -208 0 -215 -1 -215 -20z"/>
<path d="M4800 3445 l0 -95 -65 0 -65 0 0 85 c0 84 0 85 -25 85 -25 0 -25 -1
-25 -85 l0 -85 -55 0 -55 0 0 90 c0 89 0 90 -25 90 l-25 0 0 -110 0 -110 190
0 190 0 0 115 c0 108 -1 115 -20 115 -19 0 -20 -7 -20 -95z"/>
<path d="M203 3433 c-35 -3 -43 -8 -43 -24 0 -20 5 -20 165 -17 91 2 165 1
165 -2 0 -3 -71 -45 -158 -95 -141 -81 -157 -93 -160 -119 l-4 -29 48 7 c26 3
123 6 215 6 l169 0 0 26 0 26 -167 -7 -168 -6 85 51 c47 27 122 72 167 98 65
37 83 52 83 70 l0 22 -177 -2 c-98 -1 -197 -3 -220 -5z"/>
<path d="M4462 3234 c3 -16 15 -20 78 -24 l75 -5 -1 -32 c0 -18 -1 -54 -2 -81
l-2 -47 -80 3 c-74 4 -80 3 -80 -16 0 -18 9 -20 113 -26 61 -4 147 -9 190 -13
72 -5 77 -4 77 14 0 17 -9 21 -52 27 -29 3 -70 6 -92 6 -31 0 -37 3 -32 16 3
9 6 45 6 81 l0 66 90 -6 c83 -5 90 -4 90 13 0 24 -19 28 -214 36 -162 7 -168
6 -164 -12z"/>
<path d="M360 3070 c-96 -10 -176 -18 -177 -19 -2 -1 -3 -10 -3 -21 0 -25 -10
-24 233 -3 194 17 197 17 197 40 0 28 -1 28 -250 3z"/>
<path d="M473 2954 c-37 -18 -57 -63 -67 -146 -11 -90 -70 -125 -121 -73 -19
18 -25 35 -25 65 0 52 13 76 49 95 22 11 28 20 24 35 -4 16 -11 19 -27 14 -64
-19 -100 -67 -100 -133 1 -86 51 -141 129 -141 80 0 116 42 130 150 9 71 27
100 63 100 15 0 32 -4 38 -8 17 -11 34 -48 34 -75 0 -29 -35 -77 -56 -77 -11
0 -13 -6 -8 -22 9 -31 9 -31 36 -18 66 35 90 90 69 159 -22 75 -100 110 -168
75z"/>
<path d="M4493 2959 c-18 -5 -37 -19 -43 -30 -11 -20 -44 -189 -38 -194 5 -3
341 -55 361 -55 10 0 17 8 17 20 0 12 -7 20 -17 20 -9 0 -45 5 -80 11 -61 11
-63 12 -63 40 0 43 36 73 118 100 57 18 71 27 75 46 2 13 -1 23 -7 23 -16 0
-116 -37 -148 -55 -25 -14 -26 -14 -36 14 -18 50 -79 76 -139 60z m88 -60 c18
-18 20 -28 14 -67 -11 -81 -13 -85 -47 -78 -17 3 -38 6 -47 6 -37 1 -43 14
-32 75 6 32 16 64 22 71 17 21 66 17 90 -7z"/>
<path d="M638 2713 c-22 -5 -22 -14 -4 -74 l14 -47 -184 -52 c-101 -29 -184
-56 -183 -59 4 -41 9 -41 197 14 l182 53 16 -54 c11 -41 20 -54 34 -54 10 0
21 4 25 10 6 10 -66 271 -75 269 -3 -1 -13 -3 -22 -6z"/>
<path d="M4380 2619 c-38 -140 -49 -125 135 -174 88 -24 169 -45 179 -47 16
-3 23 12 47 102 16 58 29 108 29 111 0 4 -9 9 -20 12 -20 5 -24 -5 -59 -139
l-11 -42 -60 16 c-33 9 -60 21 -60 27 0 5 9 42 19 82 19 75 19 83 -9 83 -12 0
-21 -20 -35 -76 -10 -41 -21 -77 -25 -79 -8 -5 -92 15 -102 24 -4 4 1 38 12
76 25 88 25 105 1 105 -15 0 -23 -16 -41 -81z"/>
<path d="M4330 2440 c-9 -16 -1 -22 60 -46 39 -15 70 -30 70 -33 0 -19 -46
-134 -56 -138 -6 -2 -40 7 -75 21 -48 20 -65 23 -71 14 -4 -7 -8 -16 -8 -20 0
-11 338 -141 349 -133 25 15 6 32 -66 59 -43 16 -79 30 -81 31 -8 6 55 145 66
145 7 0 40 -11 74 -25 72 -29 84 -30 92 -10 4 10 -2 19 -17 24 -12 5 -91 36
-175 69 -141 55 -153 59 -162 42z"/>
<path d="M550 2358 c-102 -43 -188 -83 -193 -87 -6 -6 80 -221 95 -237 4 -3
15 -1 26 5 20 11 20 13 -19 101 -21 50 -39 95 -39 101 0 12 110 61 125 56 6
-3 25 -41 44 -86 33 -79 42 -89 69 -72 11 7 6 26 -23 95 -21 48 -36 88 -34 90
2 2 29 15 61 29 l56 25 38 -89 c20 -49 40 -92 45 -94 10 -7 39 5 39 16 0 16
-93 229 -99 228 -3 -1 -89 -37 -191 -81z"/>
<path d="M680 2074 c-96 -58 -179 -110 -185 -115 -6 -6 -4 -15 5 -24 13 -12
25 -9 93 31 84 50 94 50 117 -7 15 -35 10 -48 -51 -151 -38 -63 -40 -68 -26
-94 l14 -28 47 80 c26 43 50 91 53 106 l5 28 26 -20 c71 -57 208 23 187 109
-5 21 -102 192 -108 191 -1 -1 -81 -48 -177 -106z m198 -18 c38 -64 42 -108
10 -130 -27 -19 -68 -21 -90 -3 -23 17 -82 121 -72 124 5 2 32 17 59 33 28 16
52 30 55 30 3 0 20 -24 38 -54z"/>
<path d="M4243 2169 c-61 -18 -96 -94 -73 -163 15 -46 88 -110 147 -130 26 -9
69 -16 96 -16 44 0 54 4 82 34 52 56 53 108 3 178 -18 26 -22 28 -36 15 -13
-14 -12 -19 7 -45 46 -65 10 -142 -66 -142 -77 1 -185 72 -198 131 -7 31 15
83 40 93 9 3 32 6 51 6 27 0 34 4 34 19 0 11 -9 21 -22 25 -27 7 -24 7 -65 -5z"/>
<path d="M4077 1936 c-4 -10 41 -46 150 -116 138 -91 157 -101 170 -87 13 13
7 20 -53 59 -38 25 -108 70 -156 101 -92 61 -103 65 -111 43z"/>
<path d="M863 1764 c-156 -113 -171 -127 -161 -144 15 -23 1 -31 201 115 144
105 163 122 153 137 -6 10 -13 18 -16 18 -3 0 -83 -57 -177 -126z"/>
<path d="M4010 1827 c-13 -7 -35 -28 -48 -47 -31 -46 -25 -94 19 -134 41 -37
86 -32 159 18 60 41 82 44 110 16 25 -25 25 -46 0 -87 -22 -37 -61 -51 -101
-36 -23 9 -29 8 -34 -5 -16 -42 91 -58 139 -21 80 63 70 167 -20 205 -40 17
-66 9 -141 -43 -57 -39 -88 -38 -104 3 -20 54 45 119 96 96 21 -10 26 -9 34 7
18 34 -58 54 -109 28z"/>
<path d="M980 1704 c-109 -95 -160 -160 -160 -203 0 -52 63 -123 119 -136 47
-10 105 23 229 130 61 54 112 101 112 105 0 4 -6 13 -14 20 -12 9 -35 -6 -128
-87 -135 -117 -162 -132 -207 -109 -37 20 -65 68 -55 99 9 30 32 55 152 159
83 73 101 93 91 104 -6 8 -15 14 -19 14 -5 0 -58 -43 -120 -96z"/>
<path d="M3843 1625 c-39 -17 -73 -68 -73 -112 0 -22 9 -41 31 -62 41 -41 83
-41 158 1 43 24 63 30 84 24 62 -15 55 -95 -12 -128 -30 -15 -38 -15 -67 -3
-29 12 -33 11 -39 -3 -9 -24 18 -44 68 -49 42 -5 48 -3 89 35 38 36 43 45 43
86 0 36 -6 51 -29 75 -46 48 -77 49 -158 7 -79 -41 -89 -43 -111 -18 -24 26
-21 55 8 86 22 24 32 27 72 24 58 -4 69 16 19 37 -42 18 -42 18 -83 0z"/>
<path d="M1161 1403 c-131 -145 -141 -158 -124 -171 16 -12 26 -4 98 75 172
189 166 188 75 4 -72 -145 -80 -165 -67 -179 13 -13 31 -5 149 68 73 46 144
90 158 99 29 18 -4 -21 -134 -163 -71 -78 -78 -89 -64 -102 14 -14 21 -9 70
43 90 95 233 254 236 262 1 5 -8 16 -22 25 -25 16 -28 14 -173 -77 -81 -51
-154 -97 -162 -101 -7 -5 26 68 75 162 88 169 89 170 70 191 -11 12 -24 21
-30 21 -7 0 -76 -71 -155 -157z"/>
<path d="M3627 1417 c-69 -65 -85 -85 -75 -95 17 -17 23 -16 61 18 l34 30 109
-120 c60 -66 111 -120 115 -120 4 0 11 6 17 13 8 9 -18 43 -99 132 -60 66
-109 122 -109 126 0 4 16 19 35 33 30 23 33 30 25 47 -6 10 -14 19 -18 19 -4
-1 -46 -38 -95 -83z"/>
<path d="M3432 1248 c-7 -7 -12 -16 -12 -21 0 -4 30 -85 66 -178 36 -94 64
-172 62 -175 -3 -2 -25 11 -49 29 -24 19 -94 70 -155 115 -99 72 -114 79 -130
68 -17 -13 -15 -24 41 -200 33 -102 62 -186 66 -186 4 0 12 6 18 14 8 10 7 24
-4 56 -8 23 -15 48 -15 55 0 7 22 29 49 49 l50 35 45 -35 c24 -18 48 -34 53
-34 4 0 23 13 41 28 l33 27 -20 49 c-12 26 -21 51 -21 55 0 4 22 24 50 45 l50
38 51 -32 c45 -30 52 -31 66 -18 13 14 8 21 -58 63 -41 26 -115 74 -165 106
-50 33 -93 59 -95 59 -3 0 -10 -5 -17 -12z m116 -96 l63 -44 -33 -29 c-18 -15
-37 -28 -43 -28 -5 0 -24 35 -41 79 -17 43 -26 76 -20 72 6 -3 39 -26 74 -50z
m-199 -244 c-19 -15 -38 -26 -43 -25 -6 2 -64 146 -66 165 0 2 32 -23 71 -55
l71 -57 -33 -28z"/>
<path d="M2996 941 c-94 -60 -101 -68 -87 -89 7 -11 17 -8 52 13 39 25 44 26
54 11 5 -9 46 -73 91 -141 71 -110 82 -124 97 -113 15 12 7 27 -74 152 -69
106 -87 141 -77 148 7 5 26 16 41 26 29 17 33 45 7 49 -8 1 -55 -24 -104 -56z"/>
<path d="M1772 850 c-75 -117 -89 -150 -62 -150 5 0 25 27 46 60 21 35 41 57
48 53 6 -3 30 -19 53 -35 40 -27 43 -27 52 -10 8 16 2 23 -39 48 -27 16 -50
32 -50 37 0 12 44 77 53 77 4 0 31 -16 60 -35 59 -40 63 -41 71 -20 4 10 -15
29 -62 60 -37 25 -71 45 -77 45 -5 -1 -47 -59 -93 -130z"/>
<path d="M2131 891 c-14 -25 -14 -28 2 -34 21 -8 40 28 22 43 -11 9 -16 7 -24
-9z"/>
<path d="M2186 854 c-9 -24 12 -44 24 -24 5 8 8 19 7 24 -6 17 -24 17 -31 0z"/>
<path d="M2043 848 c-44 -58 -116 -197 -120 -232 -5 -38 -2 -45 31 -74 41 -36
87 -42 123 -17 12 8 51 63 88 121 52 83 64 109 53 115 -16 11 -25 0 -96 -115
-58 -94 -85 -111 -131 -85 -47 26 -41 68 29 181 55 90 64 118 41 118 -5 0 -13
-6 -18 -12z"/>
<path d="M2746 790 c-42 -37 -51 -69 -32 -114 21 -50 57 -70 109 -62 125 20
134 20 152 -7 20 -31 13 -59 -22 -87 -31 -24 -75 -26 -114 -3 -20 12 -32 14
-39 7 -8 -8 0 -20 25 -43 42 -36 83 -40 135 -12 76 40 89 124 29 184 -32 32
-28 31 -170 11 -43 -6 -48 -4 -65 20 -16 26 -16 28 3 54 30 40 68 50 105 29
19 -11 35 -14 45 -9 12 7 9 14 -17 35 -45 38 -98 37 -144 -3z"/>
<path d="M2206 586 c-42 -74 -76 -139 -76 -145 0 -30 32 -5 62 49 l34 59 32
-19 c32 -20 32 -20 32 -104 0 -81 6 -96 37 -96 3 0 3 38 2 85 -3 64 -1 84 8
81 7 -3 26 0 43 6 45 15 72 76 54 122 -5 14 -132 96 -147 96 -3 0 -39 -60 -81
-134z m127 68 c46 -24 67 -44 67 -67 0 -24 -27 -57 -47 -57 -18 0 -90 37 -98
50 -5 8 34 90 43 90 2 0 17 -7 35 -16z"/>
</g>
</svg>
